<svg class="canvas" viewBox="0 0 1920 1080" preserveAspectRatio="xMaxYMid slice" xmlns="http://www.w3.org/2000/svg" version="1.1" xmlns:xlink="http://www.w3.org/1999/xlink" xmlns:svgjs="http://svgjs.dev/svgjs"><rect width="1920" height="1080" fill="hsl(235, 65%, 15%)"></rect><defs><linearGradient x1="0.5" y1="0" x2="0" y2="1" id="SvgjsLinearGradient1077"><stop stop-color="#28588a" offset="0"></stop><stop stop-color="#0d0614" offset="0.1"></stop></linearGradient><linearGradient x1="0.5" y1="0" x2="0" y2="1" id="SvgjsLinearGradient1078"><stop stop-color="#28308a" offset="0"></stop><stop stop-color="#130614" offset="0.22857142857142856"></stop></linearGradient><linearGradient x1="0.5" y1="0" x2="0" y2="1" id="SvgjsLinearGradient1079"><stop stop-color="#28308a" offset="0"></stop><stop stop-color="#130614" offset="0.3571428571428571"></stop></linearGradient><linearGradient x1="0.5" y1="0" x2="0" y2="1" id="SvgjsLinearGradient1080"><stop stop-color="#c0cef2" offset="0"></stop><stop stop-color="#ad42d7" offset="0.48571428571428565"></stop></linearGradient><linearGradient x1="0.5" y1="0" x2="0" y2="1" id="SvgjsLinearGradient1081"><stop stop-color="#c0cef2" offset="0"></stop><stop stop-color="#ad42d7" offset="0.6142857142857142"></stop></linearGradient><linearGradient x1="0.5" y1="0" x2="0" y2="1" id="SvgjsLinearGradient1082"><stop stop-color="#c0c4f2" offset="0"></stop><stop stop-color="#ca42d7" offset="0.7428571428571429"></stop></linearGradient><linearGradient x1="0.5" y1="0" x2="0" y2="1" id="SvgjsLinearGradient1083"><stop stop-color="#c0c4f2" offset="0"></stop><stop stop-color="#ca42d7" offset="0.8714285714285713"></stop></linearGradient></defs><path d="M0,-578.3825932919854C61.845100603926575,-552.3868093058148,245.9095280379222,-458.0171010718775,371.07060362355946,-422.40788937496217C496.2316792091967,-386.79867767804683,628.1299018422268,-386.61187734103953,750.9664535138237,-364.7273231104934C873.8030051854206,-342.84276887994724,985.8440246526321,-330.7041237783239,1108.0899136531407,-291.10056399168514C1230.3358026536491,-251.49700420504638,1349.1234397923984,-169.22562617394414,1484.441787516875,-127.10596439066083C1619.7601352413515,-84.98630260737752,1847.406964586146,-53.16982180843128,1920,-38.382593291985366L 1920 1080 L 0 1080 Z" fill="url(&quot;#SvgjsLinearGradient1077&quot;)"></path><path d="M0,-433.8599221359062C52.18443685117717,-414.1378384137774,198.18397163003266,-350.6051952227761,313.106621107063,-315.5274198031335C428.02927058409335,-280.4496443834909,575.80766089188,-251.32142332410302,689.5358968621821,-223.39326961805048C803.2641328324842,-195.46511591199794,898.9657546272023,-180.20666346092545,995.4760369288753,-147.95849756681818C1091.9863192305481,-115.71033167271091,1174.5306929016879,-51.37001559100909,1268.59759067222,-29.90427425340686C1362.664488442752,-8.438532915804632,1451.31035533077,-44.21906060840731,1559.8774235520668,-19.16404954120481C1668.4444917733636,5.890961525997689,1859.9795705920112,97.1608185346393,1920,120.42579214980813L 1920 1080 L 0 1080 Z" fill="url(&quot;#SvgjsLinearGradient1078&quot;)"></path><path d="M0,-327.3672422292991C67.92694126322066,-310.1105084876412,281.4767345769161,-262.30731434860337,407.5616475793239,-223.8268397793518C533.6465605817317,-185.3463652101002,627.262081138158,-140.94089128917085,756.5094780144467,-96.48439481378969C885.7568748907354,-52.02789833840854,1058.8933354967123,6.997154486065575,1183.0460288370562,42.91213907293508C1307.1987221774,78.82712365980458,1378.5999761960197,85.95683816256155,1501.4256380565103,119.0055127074273C1624.2512999170008,152.05418725229305,1850.2376063427516,220.8377407363458,1920,241.2041863421295L 1920 1080 L 0 1080 Z" fill="url(&quot;#SvgjsLinearGradient1079&quot;)"></path><path d="M0,-184.27514346266616C67.44943695841697,-160.3580531640411,281.74689091795,-78.95855668428595,404.6966217505018,-40.772601670915805C527.6463525830535,-2.58664665754565,608.2470224030324,8.014870544685685,737.6983849953106,44.84058661755478C867.1497475875888,81.66630269042386,1048.1265509081004,139.2029364395343,1181.4047973041713,180.18169476629876C1314.6830437002423,221.1604530930632,1414.2686629224318,254.31308580677853,1537.3678633717366,290.71313657814153C1660.4670638210414,327.1131873495045,1856.2279772286229,380.6038555917542,1920,398.5819993944767L 1920 1080 L 0 1080 Z" fill="url(&quot;#SvgjsLinearGradient1080&quot;)"></path><path d="M0,-57.75438056360929C51.59748853717955,-48.211254675057546,217.03481134636485,-33.701808446757006,309.5849312230773,-0.49562523229885613C402.1350510997898,32.710557982159294,478.72190426681277,103.65759526610225,555.3007192602748,141.4827187231396C631.8795342537369,179.30784218017698,677.9693656839008,193.92705412454305,769.0578211838496,226.4551155099253C860.1462766837983,258.98317689530757,997.1403083605942,311.1657483888473,1101.8314522599674,336.6510870354331C1206.5225961593405,362.13642568201885,1299.6167590563523,350.69857507552763,1397.204684580089,379.36714738943976C1494.7926101038256,408.0357197033519,1600.226452832402,481.99229938727115,1687.359005402387,508.66252091890584C1774.4915579723722,535.3327424505405,1881.226500900398,534.267483969191,1920,539.3884765792479L 1920 1080 L 0 1080 Z" fill="url(&quot;#SvgjsLinearGradient1081&quot;)"></path><path d="M0,83.2298151544347C39.98783932610427,96.92397786393121,167.60599319092427,135.46248438114162,239.92703595662562,165.3947914114138C312.24807872232697,195.32709844168596,348.3527995001385,236.91319091178508,433.926256594208,262.8236573360677C519.4997136882776,288.7341237603503,664.5520554146942,300.4331970413148,753.3677785210427,320.85758995710944C842.1835016273913,341.28198287290405,894.9277070013906,368.82802311179773,966.8205952322991,385.37001483083526C1038.7134834632075,401.9120065498728,1112.3989644547464,399.11158303010643,1184.7251079064938,420.10954027133477C1257.0512513582412,441.1074975125631,1325.1934340082064,483.91496669115025,1400.777455942784,511.3577582782051C1476.3614778773615,538.80054986526,1551.6921488377566,554.216185076197,1638.2292395139593,584.7662897936639C1724.766330190162,615.3163945111307,1873.03820658566,676.3430371181158,1920,694.6583865830062L 1920 1080 L 0 1080 Z" fill="url(&quot;#SvgjsLinearGradient1082&quot;)"></path><path d="M0,207.3703780665013C45.33860767672156,222.25128325851583,180.44044384715886,269.49085247061953,272.03164606032936,296.6558092185885C363.62284827349987,323.8207659665575,450.0568153438911,348.24872060924645,549.5472132790231,370.360118554315C649.0376112141552,392.4715164993836,775.9534434185144,402.80305884674283,868.9740336711216,429.3241968889998C961.9946239237287,455.84533493125673,1020.9378442555083,487.7704237251054,1107.670754794666,529.4869468078566C1194.4036653338237,571.2034698906078,1302.7867517791785,643.696420478557,1389.371496906068,679.6233353855071C1475.9562420329573,715.5502502924571,1538.7411417070139,719.4715481836772,1627.1792255560026,745.0484362495572C1715.6173094049914,770.6253243154372,1871.196537592667,818.4119591922488,1920,833.0846637807871L 1920 1080 L 0 1080 Z" fill="url(&quot;#SvgjsLinearGradient1083&quot;)"></path></svg>