<svg class="canvas" viewBox="0 0 1920 1080" preserveAspectRatio="xMaxYMid slice" xmlns="http://www.w3.org/2000/svg" version="1.1" xmlns:xlink="http://www.w3.org/1999/xlink" xmlns:svgjs="http://svgjs.dev/svgjs"><rect width="1920" height="1080" fill="hsl(122, 65%, 15%)"></rect><defs><linearGradient x1="0.5" y1="0" x2="0" y2="1" id="SvgjsLinearGradient1399"><stop stop-color="#288a66" offset="0"></stop><stop stop-color="#060b14" offset="0.1"></stop></linearGradient><linearGradient x1="0.5" y1="0" x2="0" y2="1" id="SvgjsLinearGradient1400"><stop stop-color="#288a2b" offset="0"></stop><stop stop-color="#061314" offset="0.22857142857142856"></stop></linearGradient><linearGradient x1="0.5" y1="0" x2="0" y2="1" id="SvgjsLinearGradient1401"><stop stop-color="#288a66" offset="0"></stop><stop stop-color="#060b14" offset="0.3571428571428571"></stop></linearGradient><linearGradient x1="0.5" y1="0" x2="0" y2="1" id="SvgjsLinearGradient1402"><stop stop-color="#c0f2cb" offset="0"></stop><stop stop-color="#42b4d7" offset="0.48571428571428565"></stop></linearGradient><linearGradient x1="0.5" y1="0" x2="0" y2="1" id="SvgjsLinearGradient1403"><stop stop-color="#c0f2d5" offset="0"></stop><stop stop-color="#4296d7" offset="0.6142857142857142"></stop></linearGradient><linearGradient x1="0.5" y1="0" x2="0" y2="1" id="SvgjsLinearGradient1404"><stop stop-color="#c0f2df" offset="0"></stop><stop stop-color="#4278d7" offset="0.7428571428571429"></stop></linearGradient><linearGradient x1="0.5" y1="0" x2="0" y2="1" id="SvgjsLinearGradient1405"><stop stop-color="#c0f2d5" offset="0"></stop><stop stop-color="#4296d7" offset="0.8714285714285713"></stop></linearGradient></defs><path d="M0,-548.6310928474484C51.25058096179088,-533.277593641576,210.02665416182788,-484.5765614132476,307.50348577074527,-456.51009761221394C404.98031737966267,-428.4436338111803,504.9616390793983,-404.8576428326107,584.8609896535045,-380.23231004124654C664.7603402276106,-355.6069772498824,698.8600450427504,-331.54330175335394,786.8995892153822,-308.75810086402913C874.939133388014,-285.9728999747043,1020.7560259924487,-271.1455579014723,1113.0982546892953,-243.52110470529752C1205.440483386142,-215.89665150912276,1249.4479502564534,-172.2673711881234,1340.9529613964617,-143.0113816869806C1432.45797253647,-113.75539218583779,1565.6204817620883,-90.38188250502937,1662.1283215293447,-67.98516769844066C1758.6361612966011,-45.58845289185196,1877.0213869215575,-18.523438655947096,1920,-8.631092847448386L 1920 1080 L 0 1080 Z" fill="url(&quot;#SvgjsLinearGradient1399&quot;)"></path><path d="M0,-417.94296106193246C37.94798474383473,-401.25892560695127,136.53420274266765,-337.7469276735549,227.68790846300837,-317.8387483320454C318.84161418334907,-297.93056899053585,448.6374868543505,-324.95590067635044,546.9222343220443,-298.49388501287524C645.2069817897382,-272.03186934940004,731.8728306028678,-194.09779656635115,817.3963932691712,-159.0666543511942C902.9199559354746,-124.03551213603723,970.4118008413218,-108.34910823504728,1060.0636103198647,-88.30703172193341C1149.7154197984075,-68.26495520881954,1255.265129114621,-61.23050451857094,1355.3072501404283,-38.81419527251097C1455.3493711662356,-16.39788602645101,1566.20087816478,16.99799900504422,1660.3163364747086,46.19082375442636C1754.431794784637,75.3836485038085,1876.7193894124514,121.31743164555596,1920,136.34275322378187L 1920 1080 L 0 1080 Z" fill="url(&quot;#SvgjsLinearGradient1400&quot;)"></path><path d="M0,-331.76582033256926C51.094385275751335,-321.01918436047487,200.36326530857434,-301.3305534288777,306.566311654508,-267.28600450000295C412.7693580004417,-233.24145557112817,532.7363153743888,-157.6265045538408,637.2182780756019,-127.49852675932065C741.700240776815,-97.3705489648005,831.713476145253,-108.26377226544797,933.4580878617868,-86.51813773288205C1035.2026995783206,-64.77250320031614,1136.2626173146234,-32.4469801422982,1247.6859483748049,2.9752804360748044C1359.1092794349863,38.39754101444781,1489.9457322853427,87.0437044368919,1601.9980742228752,126.015425737356C1714.0504161604076,164.98714703782008,1866.9996790371458,218.34057782194213,1920,236.80560823885938L 1920 1080 L 0 1080 Z" fill="url(&quot;#SvgjsLinearGradient1401&quot;)"></path><path d="M0,-158.62667723950557C38.284124254487814,-146.1606402398254,133.87559236199934,-104.72754725913343,229.7047455269269,-83.83045524142452C325.53389869185446,-62.9333632237156,472.73197770368824,-67.68378711429241,574.9749189895653,-33.244125133252076C677.2178602754423,1.1955368477882686,747.0598392129605,82.88641809555651,843.1623932421888,122.80751664481755C939.2649472714172,162.7286151940786,1063.8203376008973,191.80223479809396,1151.5902431649356,206.28246616231422C1239.3601487289739,220.76269752653448,1291.2733105490297,184.49055780207652,1369.7818266264187,209.68890483013908C1448.2903427038077,234.88725185820164,1530.9383107336726,321.7156215327732,1622.6413396292694,357.47254833068956C1714.3443685248662,393.22947512860594,1870.440223271545,413.1041460698127,1920,424.2304656176373L 1920 1080 L 0 1080 Z" fill="url(&quot;#SvgjsLinearGradient1402&quot;)"></path><path d="M0,19.32120891018674C54.169171173067376,41.94400459481962,224.21846369237824,115.46293137157576,325.01502703840424,155.057983017984C425.81159038443025,194.6530346643922,503.9984888760982,236.6714451905273,604.7793800761561,256.89151878863606C705.560271276214,277.11159238674486,824.3953877580901,248.1033979663572,929.700374238752,276.3784246066366C1035.005360719414,304.653451246916,1121.585864076413,389.7665674413022,1236.6092989601277,426.5416786303125C1351.6327338438425,463.3167898193228,1505.9425333677284,465.37536050357653,1619.8409835410405,497.02909174069845C1733.7394337143526,528.6828229778204,1869.9734972568401,596.5582370009864,1920,616.464066053044L 1920 1080 L 0 1080 Z" fill="url(&quot;#SvgjsLinearGradient1403&quot;)"></path><path d="M0,117.23102175335906C46.543689834431795,135.7673788049177,189.79849195040833,191.71856375365672,279.26213900659076,228.44916406271093C368.7257860627732,265.17976437176515,454.18569785987984,316.6806547041723,536.7818823370945,337.6146236076843C619.3780668143092,358.54859251119626,673.9218287398023,338.00600714858444,774.8392458698789,354.05297748378285C875.7566629999556,370.09994781898126,1038.5453161446226,400.6562817473841,1142.2863851175541,433.8964456188749C1246.0274540904857,467.1366094903657,1312.3502146554483,513.7460311621522,1397.2856597074685,553.4939607127275C1482.2211047594888,593.2418902633027,1564.7799987142535,643.1897508441258,1651.8990554296754,672.3840229223263C1739.0181121450973,701.5782950005267,1875.3165092382792,719.2803314719965,1920,728.6595931819305L 1920 1080 L 0 1080 Z" fill="url(&quot;#SvgjsLinearGradient1404&quot;)"></path><path d="M0,215.99464126880466C59.053751261964,236.61580842421466,231.72833533824604,298.0288499657088,354.322507571784,339.7216442012648C476.91667980532196,381.4144384368208,599.1064609352514,431.0365279629767,735.5650334012278,466.15140668214053C872.0236058672041,501.26628540130434,1037.2138378971551,505.8715292288847,1173.0739423676416,550.4109165162478C1308.934046838128,594.9503038036108,1426.2379839520872,684.8380619951785,1550.7256602241468,733.387730406319C1675.2133364962065,781.9373988174594,1858.4542767040246,823.6553942202952,1920,841.7089269830905L 1920 1080 L 0 1080 Z" fill="url(&quot;#SvgjsLinearGradient1405&quot;)"></path></svg>